<svg xmlns="http://www.w3.org/2000/svg" width="512" height="512" viewBox="0 0 512 512"><rect width="512" height="512" rx="48" fill="#fff"/><rect x="32" y="32" width="448" height="448" rx="32" fill="#f8fafc" stroke="#0f172a" stroke-width="8"/><text x="256" y="82" font-family="Arial, sans-serif" font-size="30" font-weight="700" text-anchor="middle" fill="#0f172a">GCash QR</text><text x="256" y="432" font-family="Arial, sans-serif" font-size="20" font-weight="700" text-anchor="middle" fill="#0f172a">Replace this SVG with real QR</text><g fill="#0f172a"><rect x="72" y="112" width="96" height="96"/><rect x="96" y="136" width="48" height="48" fill="#fff"/><rect x="344" y="112" width="96" height="96"/><rect x="368" y="136" width="48" height="48" fill="#fff"/><rect x="72" y="304" width="96" height="96"/><rect x="96" y="328" width="48" height="48" fill="#fff"/><rect x="208" y="112" width="32" height="32"/><rect x="272" y="112" width="32" height="64"/><rect x="208" y="176" width="64" height="32"/><rect x="304" y="208" width="32" height="32"/><rect x="208" y="240" width="96" height="32"/><rect x="336" y="272" width="32" height="32"/><rect x="400" y="240" width="32" height="32"/><rect x="208" y="304" width="32" height="96"/><rect x="272" y="304" width="96" height="32"/><rect x="304" y="368" width="32" height="32"/><rect x="368" y="336" width="64" height="64"/></g></svg>